<svg xmlns="http://www.w3.org/2000/svg" xmlns:xlink="http://www.w3.org/1999/xlink" width="500" zoomAndPan="magnify" viewBox="0 0 375 374.999991" height="500" preserveAspectRatio="xMidYMid meet" version="1.0"><rect x="-37.5" width="450" fill="#ffffff" y="-37.499999" height="449.999989" fill-opacity="1"/><rect x="-37.5" width="450" fill="#ffffff" y="-37.499999" height="449.999989" fill-opacity="1"/><path fill="#ff385c" d="M 59.476562 135.300781 C 52.5 137.550781 49.5 141.75 36.601562 168 C 16.800781 208.199219 15 212.398438 15 219 C 15 227.101562 20.101562 235.273438 27.523438 238.949219 C 32.851562 241.574219 39.300781 241.726562 45.976562 239.398438 C 50.550781 237.75 58.199219 232.726562 61.800781 228.824219 C 63.074219 227.550781 64.273438 226.5 64.574219 226.5 C 64.949219 226.5 66.601562 227.851562 68.398438 229.574219 C 76.648438 237.449219 87.375 242.175781 94.726562 241.199219 C 102 240.226562 108.898438 235.050781 112.574219 227.925781 C 113.925781 225.300781 114.074219 223.800781 113.851562 218.324219 C 113.625 212.398438 113.25 211.125 109.574219 202.875 C 101.398438 184.648438 82.574219 147.226562 79.273438 142.800781 C 74.101562 135.75 66.75 132.976562 59.476562 135.300781 Z M 72.601562 143.476562 C 76.199219 146.925781 80.324219 154.425781 92.101562 178.5 C 109.5 213.976562 110.476562 216.976562 107.625 225 C 106.125 229.199219 104.101562 231.375 99.375 233.773438 C 94.425781 236.324219 89.550781 236.324219 83.773438 233.851562 C 79.5 232.050781 69.300781 224.398438 68.550781 222.449219 C 68.324219 221.925781 70.050781 218.851562 72.300781 215.699219 C 80.023438 204.898438 83.398438 195.074219 81.824219 187.875 C 80.625 182.476562 77.25 177.976562 72.976562 176.101562 C 68.175781 174 58.574219 174.449219 54.523438 176.925781 C 49.125 180.226562 46.949219 186.449219 48 195.675781 C 48.601562 201.523438 51 206.925781 56.773438 215.398438 L 60.976562 221.550781 L 55.199219 227.023438 C 48.898438 232.949219 43.425781 235.648438 37.5 235.648438 C 33.523438 235.648438 27.148438 233.175781 24.824219 230.699219 C 22.425781 228.148438 20.023438 220.648438 20.476562 217.050781 C 20.925781 213 29.175781 194.324219 41.023438 170.625 C 51.75 149.324219 54.300781 144.976562 57.976562 142.125 C 63.226562 138.148438 67.5 138.523438 72.601562 143.476562 Z M 71.851562 181.199219 C 72.976562 182.023438 74.699219 184.351562 75.675781 186.300781 C 77.324219 189.675781 77.398438 190.199219 76.648438 194.550781 C 75.148438 202.574219 66.300781 217.949219 63.898438 216.449219 C 62.550781 215.625 56.625 206.101562 54.898438 201.976562 C 53.699219 199.125 53.25 196.574219 53.25 192.074219 C 53.25 186.675781 53.476562 185.851562 55.273438 183.675781 C 56.398438 182.398438 58.351562 180.824219 59.625 180.300781 C 62.699219 178.875 69.300781 179.324219 71.851562 181.199219 Z M 71.851562 181.199219 " fill-opacity="1" fill-rule="nonzero"/><path fill="#ff385c" d="M 229.273438 175.273438 C 228.976562 185.476562 228.75 198.375 228.75 203.851562 L 228.75 213.824219 L 233.101562 213.601562 C 236.851562 213.375 237.375 213.148438 237.601562 211.648438 C 237.75 210.75 237.976562 210 238.199219 210 C 238.351562 210 240.449219 210.976562 242.773438 212.25 C 247.875 214.949219 252.375 215.175781 258.226562 213 C 265.425781 210.300781 269.25 204.226562 269.851562 194.925781 C 270.375 185.398438 267.074219 178.648438 260.101562 175.199219 C 254.175781 172.199219 248.324219 172.425781 243 175.800781 L 238.875 178.425781 L 238.648438 167.925781 L 238.425781 157.5 L 235.199219 157.5 C 233.324219 157.5 231.375 157.351562 230.773438 157.125 C 229.875 156.75 229.648438 159.675781 229.273438 175.273438 Z M 255.074219 182.699219 C 262.125 186.300781 261.601562 201 254.25 204.898438 C 245.25 209.625 236.550781 200.925781 239.25 189.824219 C 240.523438 184.425781 243.976562 181.5 249.074219 181.5 C 251.101562 181.5 253.875 182.023438 255.074219 182.699219 Z M 255.074219 182.699219 " fill-opacity="1" fill-rule="nonzero"/><path fill="#ff385c" d="M 319.273438 157.199219 C 318.976562 157.5 318.75 170.324219 318.75 185.773438 L 318.75 213.75 L 322.125 213.75 C 324 213.75 325.726562 213.824219 326.101562 213.898438 C 326.398438 213.976562 326.925781 213 327.375 211.800781 C 327.75 210.601562 328.125 209.550781 328.199219 209.398438 C 328.273438 209.324219 330.074219 210.375 332.25 211.875 C 335.476562 214.050781 336.824219 214.5 340.050781 214.5 C 346.875 214.425781 353.851562 210.074219 357.148438 203.699219 C 358.949219 200.175781 359.773438 191.324219 358.574219 187.050781 C 356.101562 177.824219 345.75 171 337.648438 173.25 C 335.925781 173.699219 333.074219 175.199219 331.273438 176.550781 L 327.976562 179.101562 L 327.449219 168.523438 C 327.148438 162.675781 326.851562 157.875 326.773438 157.800781 C 326.101562 157.351562 319.648438 156.824219 319.273438 157.199219 Z M 344.25 182.625 C 347.476562 184.273438 348.75 187.351562 348.75 193.273438 C 348.75 202.125 344.773438 206.699219 337.648438 206.023438 C 327.300781 204.976562 324.226562 188.925781 333.148438 182.699219 C 335.324219 181.199219 341.398438 181.125 344.25 182.625 Z M 344.25 182.625 " fill-opacity="1" fill-rule="nonzero"/><path fill="#ff385c" d="M 186 158.625 C 184.875 159.976562 184.800781 164.851562 186 165.976562 C 187.199219 167.25 193.5 166.949219 194.324219 165.675781 C 195.226562 164.25 195.148438 160.726562 194.25 158.925781 C 193.273438 157.125 187.425781 156.898438 186 158.625 Z M 186 158.625 " fill-opacity="1" fill-rule="nonzero"/><path fill="#ff385c" d="M 148.875 174.300781 C 145.574219 175.726562 141.976562 179.550781 139.726562 184.050781 C 138.074219 187.273438 137.773438 188.851562 137.773438 194.324219 C 137.851562 202.800781 140.101562 207.375 146.175781 211.425781 C 149.925781 213.898438 150.675781 214.125 155.550781 214.125 C 160.425781 214.125 161.25 213.898438 164.25 211.648438 C 166.050781 210.375 167.773438 209.25 168.074219 209.25 C 168.375 209.25 168.976562 210.226562 169.425781 211.5 C 170.101562 213.601562 170.398438 213.75 174.300781 213.75 L 178.5 213.75 L 178.5 198.898438 C 178.5 190.800781 178.273438 181.875 177.976562 179.023438 L 177.523438 174 L 174.300781 174 C 171.375 174 171.074219 174.148438 170.625 176.25 C 170.023438 178.949219 168.824219 179.101562 165.898438 176.625 C 164.699219 175.648438 162.824219 174.449219 161.699219 174 C 158.851562 172.949219 151.574219 173.101562 148.875 174.300781 Z M 164.101562 183 C 167.175781 184.875 168 187.050781 168 193.351562 C 168 201.75 164.324219 206.25 157.351562 206.25 C 152.175781 206.25 147 200.023438 147 193.875 C 147 189.148438 150.074219 183.601562 153.375 182.175781 C 156.226562 181.050781 161.550781 181.425781 164.101562 183 Z M 164.101562 183 " fill-opacity="1" fill-rule="nonzero"/><path fill="#ff385c" d="M 217.5 174.449219 C 216.074219 175.050781 213.976562 176.398438 212.925781 177.449219 C 210.824219 179.476562 210.523438 179.324219 209.699219 176.023438 C 209.25 174.148438 208.949219 174 205.574219 174 L 201.976562 174 L 201.449219 177.898438 C 201.226562 180.074219 201 189.074219 201 197.773438 L 201 213.75 L 210.523438 213.75 L 210.675781 202.050781 C 210.75 195.675781 211.050781 189.824219 211.273438 189.148438 C 212.25 186.449219 215.699219 183.675781 219.523438 182.550781 L 223.5 181.425781 L 223.5 177.300781 C 223.5 173.625 223.351562 173.25 221.851562 173.25 C 220.875 173.324219 218.925781 173.851562 217.5 174.449219 Z M 217.5 174.449219 " fill-opacity="1" fill-rule="nonzero"/><path fill="#ff385c" d="M 289.425781 175.875 C 286.351562 179.101562 285.300781 179.175781 284.773438 176.25 C 284.324219 174.148438 284.101562 174 280.648438 174 C 277.125 174 276.898438 174.074219 276.449219 176.324219 C 276.226562 177.601562 276 186.601562 276 196.199219 L 276 213.75 L 285 213.75 L 285 203.324219 C 285 189.523438 285.449219 186.449219 288 183.75 C 289.800781 181.875 290.699219 181.5 293.773438 181.5 C 296.699219 181.5 297.824219 181.875 299.175781 183.300781 C 301.648438 185.925781 302.175781 189.523438 302.25 202.273438 L 302.25 213.75 L 312.148438 213.75 L 311.851562 199.648438 C 311.550781 185.773438 311.550781 185.476562 309.375 181.050781 C 306.449219 175.351562 303.148438 173.25 296.476562 173.25 C 292.199219 173.25 291.675781 173.398438 289.425781 175.875 Z M 289.425781 175.875 " fill-opacity="1" fill-rule="nonzero"/><path fill="#ff385c" d="M 185.699219 176.324219 C 185.476562 177.601562 185.25 186.601562 185.25 196.199219 L 185.25 213.75 L 195 213.75 L 195 174 L 190.574219 174 C 186.226562 174 186.148438 174.074219 185.699219 176.324219 Z M 185.699219 176.324219 " fill-opacity="1" fill-rule="nonzero"/></svg>