<?xml version="1.0" standalone="no"?>
<!DOCTYPE svg PUBLIC "-//W3C//DTD SVG 20010904//EN"
 "http://www.w3.org/TR/2001/REC-SVG-20010904/DTD/svg10.dtd">
<svg version="1.0" xmlns="http://www.w3.org/2000/svg"
 width="500.000000pt" height="500.000000pt" viewBox="0 0 500.000000 500.000000"
 preserveAspectRatio="xMidYMid meet">

<g transform="translate(0.000000,500.000000) scale(0.100000,-0.100000)"
fill="#000000" stroke="none">
<path d="M793 3196 c-93 -30 -133 -86 -305 -436 -264 -536 -288 -592 -288
-680 0 -108 68 -217 167 -266 71 -35 157 -37 246 -6 61 22 163 89 211 141 17
17 33 31 37 31 5 0 27 -18 51 -41 110 -105 253 -168 351 -155 97 13 189 82
238 177 18 35 20 55 17 128 -3 79 -8 96 -57 206 -109 243 -360 742 -404 801
-69 94 -167 131 -264 100z m175 -109 c48 -46 103 -146 260 -467 232 -473 245
-513 207 -620 -20 -56 -47 -85 -110 -117 -66 -34 -131 -34 -208 -1 -57 24
-193 126 -203 152 -3 7 20 48 50 90 103 144 148 275 127 371 -16 72 -61 132
-118 157 -64 28 -192 22 -246 -11 -72 -44 -101 -127 -87 -250 8 -78 40 -150
117 -263 l56 -82 -77 -73 c-84 -79 -157 -115 -236 -115 -53 0 -138 33 -169 66
-32 34 -64 134 -58 182 6 54 116 303 274 619 143 284 177 342 226 380 70 53
127 48 195 -18z m-10 -503 c15 -11 38 -42 51 -68 22 -45 23 -52 13 -110 -20
-107 -138 -312 -170 -292 -18 11 -97 138 -120 193 -16 38 -22 72 -22 132 0 72
3 83 27 112 15 17 41 38 58 45 41 19 129 13 163 -12z"/>
<path d="M3057 2663 c-4 -136 -7 -308 -7 -381 l0 -133 58 3 c50 3 57 6 60 26
2 12 5 22 8 22 2 0 30 -13 61 -30 68 -36 128 -39 206 -10 96 36 147 117 155
241 7 127 -37 217 -130 263 -79 40 -157 37 -228 -8 l-55 -35 -3 140 -3 139
-43 0 c-25 0 -51 2 -59 5 -12 5 -15 -34 -20 -242z m344 -99 c94 -48 87 -244
-11 -296 -120 -63 -236 53 -200 201 17 72 63 111 131 111 27 0 64 -7 80 -16z"/>
<path d="M4257 2904 c-4 -4 -7 -175 -7 -381 l0 -373 45 0 c25 0 48 -1 53 -2 4
-1 11 12 17 28 5 16 10 30 11 32 1 1 25 -13 54 -33 43 -29 61 -35 104 -35 91
1 184 59 228 144 24 47 35 165 19 222 -33 123 -171 214 -279 184 -23 -6 -61
-26 -85 -44 l-44 -34 -7 141 c-4 78 -8 142 -9 143 -9 6 -95 13 -100 8z m333
-339 c43 -22 60 -63 60 -142 0 -118 -53 -179 -148 -170 -138 14 -179 228 -60
311 29 20 110 21 148 1z"/>
<path d="M2480 2885 c-15 -18 -16 -83 0 -98 16 -17 100 -13 111 4 12 19 11 66
-1 90 -13 24 -91 27 -110 4z"/>
<path d="M1985 2676 c-44 -19 -92 -70 -122 -130 -22 -43 -26 -64 -26 -137 1
-113 31 -174 112 -228 50 -33 60 -36 125 -36 65 0 76 3 116 33 24 17 47 32 51
32 4 0 12 -13 18 -30 9 -28 13 -30 65 -30 l56 0 0 198 c0 108 -3 227 -7 265
l-6 67 -43 0 c-39 0 -43 -2 -49 -30 -8 -36 -24 -38 -63 -5 -16 13 -41 29 -56
35 -38 14 -135 12 -171 -4z m203 -116 c41 -25 52 -54 52 -138 0 -112 -49 -172
-142 -172 -69 0 -138 83 -138 165 0 63 41 137 85 156 38 15 109 10 143 -11z"/>
<path d="M2900 2674 c-19 -8 -47 -26 -61 -40 -28 -27 -32 -25 -43 19 -6 25
-10 27 -55 27 l-48 0 -7 -52 c-3 -29 -6 -149 -6 -265 l0 -213 63 0 64 0 2 156
c1 85 5 163 8 172 13 36 59 73 110 88 l53 15 0 55 c0 49 -2 54 -22 54 -13 -1
-39 -8 -58 -16z"/>
<path d="M3859 2655 c-41 -43 -55 -44 -62 -5 -6 28 -9 30 -55 30 -47 0 -50 -1
-56 -31 -3 -17 -6 -137 -6 -265 l0 -234 60 0 60 0 0 139 c0 184 6 225 40 261
24 25 36 30 77 30 39 0 54 -5 72 -24 33 -35 40 -83 41 -253 l0 -153 66 0 66 0
-4 188 c-4 185 -4 189 -33 248 -39 76 -83 104 -172 104 -57 0 -64 -2 -94 -35z"/>
<path d="M2476 2649 c-3 -17 -6 -137 -6 -265 l0 -234 65 0 65 0 0 265 0 265
-59 0 c-58 0 -59 -1 -65 -31z"/>
</g>
</svg>
