<svg xmlns="http://www.w3.org/2000/svg" xmlns:xlink="http://www.w3.org/1999/xlink" width="500" zoomAndPan="magnify" viewBox="0 0 375 374.999991" height="500" preserveAspectRatio="xMidYMid meet" version="1.0"><path fill="#ff385c" d="M 173.832031 72.257812 C 165.585938 75.214844 160.167969 79.523438 155.488281 86.664062 C 143.300781 105.5 96.269531 203.503906 92.945312 216.921875 C 89.621094 230.464844 93.929688 244.378906 104.640625 254.84375 C 114.613281 264.449219 125.449219 267.894531 139.976562 266.046875 C 152.042969 264.449219 167.308594 255.828125 178.144531 244.257812 C 180.234375 242.164062 182.328125 240.4375 182.945312 240.4375 C 183.558594 240.4375 187.871094 243.886719 192.425781 248.195312 C 197.101562 252.382812 204.984375 258.046875 209.90625 260.753906 C 218.773438 265.554688 219.019531 265.679688 231.824219 265.679688 C 243.640625 265.679688 245.367188 265.308594 251.273438 262.230469 C 269.375 252.75 278.855469 232.066406 273.066406 214.460938 C 268.144531 199.5625 221.359375 102.792969 211.878906 88.140625 C 202.890625 74.105469 187.128906 67.457031 173.832031 72.257812 Z M 194.765625 86.542969 C 201.414062 91.464844 201.78125 91.957031 223.082031 134.558594 C 252.875 194.269531 261.617188 213.96875 262.355469 222.832031 C 263.21875 234.652344 258.910156 243.023438 248.074219 250.535156 C 242.78125 254.230469 241.550781 254.597656 233.054688 254.597656 C 225.175781 254.597656 222.589844 253.980469 215.695312 250.535156 C 211.140625 248.320312 203.875 243.269531 199.195312 238.960938 L 190.949219 231.207031 L 197.964844 220.742188 C 211.140625 201.164062 215.816406 189.097656 215.816406 175.1875 C 215.816406 168.90625 215.078125 165.582031 212.617188 160.535156 C 203.136719 141.574219 175.1875 137.019531 160.167969 152.039062 C 153.148438 159.058594 150.5625 165.335938 150.5625 176.171875 C 150.5625 188.484375 156.71875 204.121094 167.308594 219.015625 C 173.339844 227.511719 174.820312 230.34375 173.832031 231.945312 C 171.742188 235.882812 156.472656 247.949219 149.824219 251.027344 C 146.253906 252.628906 139.976562 254.351562 136.035156 254.722656 C 129.878906 255.460938 127.664062 255.089844 122.125 252.503906 C 108.949219 246.472656 102.917969 236.5 104.148438 222.832031 C 104.640625 216.921875 106.488281 211.261719 112.519531 197.964844 C 124.957031 170.386719 162.507812 95.773438 166.078125 91.589844 C 173.832031 82.230469 185.898438 80.261719 194.765625 86.542969 Z M 192.300781 156.71875 C 208.921875 165.089844 208.554688 182.449219 191.195312 209.535156 C 187.746094 214.953125 184.050781 219.507812 183.191406 219.507812 C 181.097656 219.507812 169.769531 202.027344 166.078125 193.039062 C 162.136719 183.1875 161.152344 175.679688 162.875 169.03125 C 166.078125 156.964844 180.851562 150.808594 192.300781 156.71875 Z M 192.300781 156.71875 " fill-opacity="1" fill-rule="nonzero"/></svg>