<svg xmlns="http://www.w3.org/2000/svg" xmlns:xlink="http://www.w3.org/1999/xlink" width="500" zoomAndPan="magnify" viewBox="0 0 375 374.999991" height="500" preserveAspectRatio="xMidYMid meet" version="1.0"><defs><clipPath id="179e18704a"><path d="M 229 230 L 351 230 L 351 351.75 L 229 351.75 Z M 229 230 " clip-rule="nonzero"/></clipPath></defs><path fill="#000000" d="M 167.285156 288.4375 C 164.832031 288.441406 162.378906 288.367188 159.929688 288.214844 C 157.480469 288.066406 155.039062 287.84375 152.601562 287.542969 C 150.167969 287.246094 147.742188 286.871094 145.328125 286.421875 C 142.917969 285.972656 140.519531 285.453125 138.140625 284.855469 C 135.757812 284.261719 133.398438 283.59375 131.058594 282.855469 C 128.71875 282.113281 126.40625 281.300781 124.117188 280.421875 C 121.824219 279.539062 119.566406 278.585938 117.335938 277.566406 C 115.101562 276.542969 112.90625 275.457031 110.742188 274.300781 C 108.574219 273.144531 106.449219 271.921875 104.359375 270.636719 C 102.269531 269.347656 100.222656 268 98.214844 266.585938 C 96.207031 265.175781 94.246094 263.703125 92.332031 262.167969 C 90.414062 260.636719 88.546875 259.046875 86.726562 257.398438 C 84.910156 255.75 83.144531 254.050781 81.429688 252.292969 C 79.714844 250.539062 78.054688 248.730469 76.453125 246.871094 C 74.851562 245.015625 73.304688 243.109375 71.820312 241.15625 C 70.332031 239.203125 68.90625 237.207031 67.542969 235.167969 C 66.179688 233.128906 64.878906 231.046875 63.644531 228.929688 C 62.410156 226.808594 61.238281 224.652344 60.136719 222.460938 C 59.03125 220.269531 57.996094 218.046875 57.027344 215.789062 C 56.0625 213.535156 55.164062 211.253906 54.339844 208.941406 C 53.511719 206.632812 52.753906 204.296875 52.070312 201.941406 C 51.386719 199.585938 50.777344 197.207031 50.238281 194.816406 C 49.703125 192.421875 49.238281 190.011719 48.847656 187.589844 C 48.457031 185.167969 48.144531 182.734375 47.902344 180.292969 C 47.660156 177.851562 47.496094 175.402344 47.40625 172.949219 C 47.316406 170.5 47.300781 168.046875 47.359375 165.59375 C 47.421875 163.140625 47.558594 160.691406 47.765625 158.246094 C 47.976562 155.800781 48.261719 153.363281 48.625 150.9375 C 48.984375 148.511719 49.417969 146.097656 49.925781 143.695312 C 50.433594 141.292969 51.015625 138.910156 51.671875 136.546875 C 52.324219 134.183594 53.050781 131.839844 53.851562 129.519531 C 54.648438 127.199219 55.519531 124.90625 56.457031 122.636719 C 57.398438 120.371094 58.40625 118.136719 59.480469 115.929688 C 60.558594 113.722656 61.703125 111.554688 62.910156 109.417969 C 64.121094 107.285156 65.394531 105.1875 66.734375 103.132812 C 68.074219 101.074219 69.472656 99.0625 70.933594 97.089844 C 72.398438 95.121094 73.917969 93.195312 75.5 91.320312 C 77.078125 89.441406 78.714844 87.613281 80.40625 85.839844 C 82.101562 84.0625 83.847656 82.339844 85.644531 80.667969 C 87.441406 79 89.289062 77.386719 91.1875 75.828125 C 93.085938 74.273438 95.027344 72.777344 97.015625 71.339844 C 99.007812 69.902344 101.039062 68.527344 103.113281 67.214844 C 105.183594 65.902344 107.296875 64.65625 109.445312 63.472656 C 111.597656 62.292969 113.78125 61.175781 116 60.128906 C 118.21875 59.078125 120.46875 58.101562 122.746094 57.191406 C 125.023438 56.28125 127.328125 55.441406 129.660156 54.671875 C 131.992188 53.902344 134.34375 53.207031 136.714844 52.582031 C 139.089844 51.957031 141.480469 51.40625 143.886719 50.929688 C 146.292969 50.449219 148.710938 50.046875 151.144531 49.71875 C 153.574219 49.386719 156.015625 49.132812 158.460938 48.953125 C 160.910156 48.773438 163.359375 48.671875 165.8125 48.640625 C 168.265625 48.613281 170.71875 48.660156 173.171875 48.78125 C 175.621094 48.902344 178.066406 49.097656 180.503906 49.371094 C 182.945312 49.644531 185.371094 49.988281 187.789062 50.410156 C 190.207031 50.832031 192.609375 51.324219 194.996094 51.894531 C 197.382812 52.460938 199.75 53.101562 202.097656 53.816406 C 204.445312 54.53125 206.769531 55.316406 209.070312 56.171875 C 211.371094 57.027344 213.640625 57.953125 215.882812 58.949219 C 218.125 59.945312 220.335938 61.007812 222.515625 62.140625 C 224.691406 63.273438 226.832031 64.46875 228.9375 65.734375 C 231.039062 66.996094 233.105469 68.320312 235.125 69.710938 C 237.148438 71.101562 239.125 72.550781 241.058594 74.0625 C 242.992188 75.574219 244.878906 77.140625 246.714844 78.769531 C 248.554688 80.394531 250.339844 82.078125 252.074219 83.8125 C 254.15625 85.894531 256.160156 88.050781 258.085938 90.277344 C 260.007812 92.507812 261.847656 94.800781 263.605469 97.167969 C 265.359375 99.53125 267.023438 101.957031 268.601562 104.441406 C 270.175781 106.929688 271.660156 109.472656 273.050781 112.066406 C 274.4375 114.664062 275.730469 117.308594 276.925781 120 C 278.117188 122.691406 279.210938 125.421875 280.203125 128.191406 C 281.199219 130.964844 282.085938 133.769531 282.875 136.609375 C 283.660156 139.445312 284.339844 142.308594 284.914062 145.195312 C 285.488281 148.082031 285.957031 150.988281 286.320312 153.910156 C 286.679688 156.832031 286.933594 159.761719 287.078125 162.703125 C 287.222656 165.644531 287.257812 168.585938 287.1875 171.53125 C 287.117188 174.472656 286.933594 177.410156 286.648438 180.339844 C 286.359375 183.273438 285.960938 186.1875 285.460938 189.089844 C 284.957031 191.988281 284.347656 194.867188 283.628906 197.722656 C 282.914062 200.582031 282.09375 203.40625 281.171875 206.203125 C 280.246094 208.996094 279.222656 211.753906 278.09375 214.476562 C 276.96875 217.195312 275.742188 219.871094 274.417969 222.5 C 273.09375 225.128906 271.675781 227.707031 270.160156 230.234375 C 268.644531 232.757812 267.042969 235.222656 265.34375 237.628906 C 263.648438 240.039062 261.867188 242.378906 260 244.652344 C 258.128906 246.929688 256.179688 249.132812 254.148438 251.265625 C 252.117188 253.398438 250.011719 255.449219 247.828125 257.425781 C 245.644531 259.402344 243.394531 261.296875 241.070312 263.109375 C 238.75 264.917969 236.363281 266.640625 233.914062 268.273438 C 231.464844 269.910156 228.960938 271.453125 226.398438 272.902344 C 223.835938 274.351562 221.222656 275.707031 218.5625 276.960938 C 215.898438 278.21875 213.191406 279.378906 210.445312 280.4375 C 207.699219 281.492188 204.914062 282.449219 202.097656 283.300781 C 199.277344 284.15625 196.433594 284.902344 193.558594 285.546875 C 190.6875 286.1875 187.792969 286.726562 184.878906 287.15625 C 181.96875 287.585938 179.042969 287.90625 176.105469 288.121094 C 173.167969 288.335938 170.230469 288.441406 167.285156 288.4375 Z M 167.285156 75.050781 C 165.496094 75.046875 163.710938 75.09375 161.925781 75.195312 C 160.140625 75.292969 158.363281 75.441406 156.585938 75.640625 C 154.808594 75.84375 153.039062 76.09375 151.277344 76.394531 C 149.515625 76.695312 147.765625 77.046875 146.023438 77.449219 C 144.28125 77.851562 142.554688 78.304688 140.839844 78.804688 C 139.121094 79.308594 137.421875 79.855469 135.738281 80.457031 C 134.054688 81.054688 132.390625 81.699219 130.742188 82.394531 C 129.09375 83.089844 127.46875 83.828125 125.863281 84.617188 C 124.261719 85.40625 122.679688 86.238281 121.121094 87.117188 C 119.566406 87.992188 118.035156 88.914062 116.53125 89.878906 C 115.027344 90.847656 113.550781 91.855469 112.105469 92.90625 C 110.660156 93.953125 109.246094 95.046875 107.859375 96.175781 C 106.476562 97.308594 105.128906 98.476562 103.808594 99.6875 C 102.492188 100.894531 101.210938 102.140625 99.96875 103.421875 C 98.722656 104.707031 97.515625 106.023438 96.34375 107.375 C 95.175781 108.726562 94.042969 110.109375 92.953125 111.523438 C 91.863281 112.941406 90.816406 114.386719 89.808594 115.863281 C 88.800781 117.339844 87.835938 118.84375 86.914062 120.375 C 85.992188 121.90625 85.117188 123.464844 84.28125 125.042969 C 83.449219 126.625 82.664062 128.230469 81.925781 129.859375 C 81.183594 131.484375 80.492188 133.132812 79.84375 134.796875 C 79.199219 136.464844 78.601562 138.148438 78.050781 139.847656 C 77.503906 141.550781 77.003906 143.265625 76.550781 144.996094 C 76.101562 146.722656 75.699219 148.464844 75.347656 150.21875 C 74.996094 151.96875 74.695312 153.730469 74.445312 155.5 C 74.195312 157.269531 73.996094 159.046875 73.847656 160.828125 C 73.699219 162.609375 73.601562 164.390625 73.554688 166.179688 C 73.507812 167.964844 73.515625 169.753906 73.570312 171.539062 C 73.625 173.324219 73.734375 175.109375 73.890625 176.890625 C 74.050781 178.667969 74.257812 180.445312 74.519531 182.210938 C 74.78125 183.980469 75.089844 185.738281 75.449219 187.492188 C 75.8125 189.242188 76.222656 190.980469 76.683594 192.707031 C 77.144531 194.433594 77.652344 196.144531 78.210938 197.84375 C 78.769531 199.542969 79.378906 201.222656 80.03125 202.886719 C 80.6875 204.546875 81.390625 206.191406 82.140625 207.8125 C 82.886719 209.4375 83.683594 211.035156 84.523438 212.613281 C 85.363281 214.191406 86.25 215.742188 87.179688 217.269531 C 88.109375 218.796875 89.082031 220.292969 90.097656 221.765625 C 91.113281 223.234375 92.171875 224.675781 93.269531 226.085938 C 94.367188 227.496094 95.503906 228.875 96.683594 230.21875 C 97.859375 231.5625 99.074219 232.875 100.328125 234.148438 C 101.578125 235.421875 102.867188 236.664062 104.191406 237.863281 C 105.511719 239.066406 106.871094 240.226562 108.261719 241.351562 C 109.648438 242.476562 111.070312 243.558594 112.523438 244.601562 C 113.976562 245.640625 115.457031 246.640625 116.964844 247.601562 C 118.472656 248.558594 120.007812 249.46875 121.570312 250.339844 C 123.132812 251.210938 124.71875 252.035156 126.328125 252.8125 C 127.9375 253.589844 129.566406 254.320312 131.214844 255.007812 C 132.867188 255.691406 134.535156 256.328125 136.222656 256.917969 C 137.910156 257.507812 139.613281 258.050781 141.332031 258.539062 C 143.050781 259.03125 144.78125 259.476562 146.527344 259.867188 C 148.269531 260.261719 150.023438 260.601562 151.785156 260.894531 C 153.550781 261.1875 155.320312 261.429688 157.097656 261.617188 C 158.875 261.808594 160.65625 261.949219 162.441406 262.039062 C 164.226562 262.125 166.011719 262.164062 167.796875 262.148438 C 169.585938 262.136719 171.371094 262.070312 173.15625 261.953125 C 174.9375 261.839844 176.71875 261.671875 178.492188 261.453125 C 180.265625 261.234375 182.03125 260.964844 183.789062 260.648438 C 185.546875 260.328125 187.296875 259.957031 189.035156 259.539062 C 190.773438 259.117188 192.496094 258.648438 194.207031 258.132812 C 195.917969 257.613281 197.609375 257.046875 199.289062 256.429688 C 200.96875 255.816406 202.625 255.152344 204.265625 254.441406 C 205.90625 253.730469 207.523438 252.972656 209.121094 252.171875 C 210.71875 251.367188 212.289062 250.519531 213.839844 249.625 C 215.386719 248.730469 216.90625 247.796875 218.402344 246.816406 C 219.894531 245.835938 221.359375 244.8125 222.796875 243.746094 C 224.230469 242.683594 225.636719 241.578125 227.007812 240.433594 C 228.382812 239.289062 229.71875 238.105469 231.023438 236.882812 C 232.328125 235.660156 233.597656 234.402344 234.828125 233.109375 C 236.0625 231.8125 237.257812 230.484375 238.414062 229.121094 C 239.570312 227.757812 240.683594 226.363281 241.761719 224.9375 C 242.835938 223.507812 243.871094 222.054688 244.863281 220.566406 C 245.859375 219.082031 246.808594 217.566406 247.714844 216.027344 C 248.621094 214.484375 249.480469 212.921875 250.296875 211.332031 C 251.113281 209.742188 251.882812 208.128906 252.605469 206.496094 C 253.332031 204.859375 254.007812 203.207031 254.636719 201.535156 C 255.265625 199.859375 255.847656 198.171875 256.378906 196.464844 C 256.910156 194.757812 257.394531 193.039062 257.828125 191.304688 C 258.261719 189.570312 258.644531 187.824219 258.980469 186.070312 C 259.3125 184.3125 259.597656 182.550781 259.828125 180.777344 C 260.0625 179.003906 260.242188 177.226562 260.375 175.445312 C 260.503906 173.664062 260.585938 171.878906 260.613281 170.089844 C 260.640625 168.304688 260.617188 166.519531 260.546875 164.730469 C 260.472656 162.945312 260.347656 161.164062 260.167969 159.386719 C 259.992188 157.605469 259.765625 155.835938 259.488281 154.070312 C 259.210938 152.304688 258.882812 150.546875 258.503906 148.800781 C 258.125 147.054688 257.699219 145.320312 257.222656 143.597656 C 256.742188 141.875 256.214844 140.167969 255.640625 138.472656 C 255.066406 136.78125 254.441406 135.109375 253.769531 133.453125 C 253.097656 131.796875 252.378906 130.160156 251.613281 128.542969 C 250.851562 126.929688 250.039062 125.335938 249.183594 123.769531 C 248.324219 122.199219 247.425781 120.65625 246.480469 119.140625 C 245.535156 117.621094 244.546875 116.132812 243.515625 114.671875 C 242.488281 113.214844 241.414062 111.785156 240.304688 110.382812 C 239.191406 108.984375 238.039062 107.617188 236.847656 106.285156 C 235.65625 104.953125 234.429688 103.65625 233.164062 102.390625 C 231.007812 100.234375 228.75 98.1875 226.390625 96.25 C 224.03125 94.3125 221.585938 92.496094 219.046875 90.796875 C 216.511719 89.101562 213.898438 87.53125 211.207031 86.09375 C 208.515625 84.652344 205.761719 83.347656 202.941406 82.175781 C 200.121094 81.007812 197.253906 79.976562 194.332031 79.089844 C 191.414062 78.203125 188.457031 77.457031 185.464844 76.859375 C 182.46875 76.261719 179.457031 75.8125 176.417969 75.511719 C 173.382812 75.207031 170.335938 75.054688 167.285156 75.050781 Z M 167.285156 75.050781 " fill-opacity="1" fill-rule="nonzero"/><g clip-path="url(#179e18704a)"><path fill="#000000" d="M 337.257812 351.75 C 335.511719 351.742188 333.835938 351.402344 332.226562 350.730469 C 330.617188 350.054688 329.195312 349.101562 327.96875 347.863281 L 233.429688 253.390625 C 232.816406 252.777344 232.269531 252.113281 231.789062 251.394531 C 231.308594 250.671875 230.902344 249.914062 230.570312 249.113281 C 230.238281 248.3125 229.988281 247.488281 229.820312 246.640625 C 229.652344 245.792969 229.566406 244.933594 229.566406 244.066406 C 229.566406 243.203125 229.652344 242.34375 229.820312 241.496094 C 229.988281 240.648438 230.238281 239.824219 230.570312 239.023438 C 230.902344 238.222656 231.308594 237.464844 231.789062 236.742188 C 232.269531 236.023438 232.816406 235.359375 233.429688 234.746094 C 234.039062 234.132812 234.707031 233.585938 235.425781 233.105469 C 236.144531 232.625 236.90625 232.21875 237.707031 231.886719 C 238.503906 231.558594 239.328125 231.308594 240.179688 231.136719 C 241.027344 230.96875 241.886719 230.886719 242.75 230.886719 C 243.617188 230.886719 244.472656 230.96875 245.324219 231.136719 C 246.171875 231.308594 246.996094 231.558594 247.796875 231.886719 C 248.59375 232.21875 249.355469 232.625 250.074219 233.105469 C 250.792969 233.585938 251.460938 234.132812 252.074219 234.746094 L 346.546875 329.285156 C 347.460938 330.207031 348.222656 331.238281 348.835938 332.386719 C 349.445312 333.535156 349.875 334.746094 350.125 336.019531 C 350.378906 337.292969 350.441406 338.578125 350.3125 339.867188 C 350.1875 341.160156 349.875 342.410156 349.378906 343.609375 C 348.882812 344.808594 348.222656 345.910156 347.398438 346.917969 C 346.578125 347.921875 345.625 348.789062 344.546875 349.511719 C 343.46875 350.234375 342.308594 350.789062 341.066406 351.171875 C 339.824219 351.550781 338.554688 351.746094 337.257812 351.75 Z M 337.257812 351.75 " fill-opacity="1" fill-rule="nonzero"/></g></svg>